<?xml version="1.0" encoding="utf-8"?>
<!-- Generator: Adobe Illustrator 23.1.0, SVG Export Plug-In . SVG Version: 6.00 Build 0)  -->
<svg version="1.1" id="Слой_1" xmlns="http://www.w3.org/2000/svg" xmlns:xlink="http://www.w3.org/1999/xlink" x="0px" y="0px"
	 viewBox="0 0 1920 1270" style="enable-background:new 0 0 1920 1270;" xml:space="preserve">
<style type="text/css">
	.st0{fill:#FFD939;}
	.st1{fill:#F4A914;}
	.st2{fill:#FFFFFF;}
	.st3{fill:#FFB0D8;}
	.st4{fill:#53CAF1;}
	.st5{fill:#03036D;}
	.st6{fill:#0000EF;}
	.st7{fill:#0000D8;}
	.st8{fill:#E04136;}
	.st9{fill:#A8E4F4;}
	.st10{fill:#3DB5C9;}
	.st11{fill:#48C6D3;}
	.st12{fill:#FFCCE8;}
	.st13{fill:#3CA184;}
	.st14{fill:#2C8469;}
	.st15{fill:#F3CF14;}
	.st16{fill:#FE673C;}
	.st17{fill:#FE7EB2;}
	.st18{fill:#E56EA4;}
	.st19{fill:#D2F1FC;}
	.st20{fill:#25ACBA;}
</style>
<g id="Letter">
	<path class="st0" d="M1293.6,894.2c-3.8-24.7-7.5-49.4-10.2-74.2c-2.1-19.7-3.9-39.5-6.4-59.2h-65.3c-358,4.1-372.1-3.3-372.1,25.1
		s6.5,204,16.7,206.6c7.4,1.9,297.2-4.6,452.2-8.2C1303.3,954.3,1298.2,924.3,1293.6,894.2z"/>
	<path class="st1" d="M1293.6,894.2c-3.8-24.7-7.5-49.4-10.2-74.2c-2.1-19.7-3.9-39.5-6.4-59.2h-65.3c-23.4,0.3-45.3,0.5-65.8,0.7
		c-8.7,18.1-20.5,34.8-34,50c-43.9,49.6-101,85.4-143.5,136.6c-11.3,13.6-21.5,28.4-30,44c99.1-1.6,265.3-5.3,370-7.8
		C1303.3,954.3,1298.2,924.3,1293.6,894.2z"/>
	<path class="st2" d="M1051,913.3l-0.7-0.5c-0.4-0.3-45.1-28.2-196.4-132.8l1.5-2.1c140.8,97.3,189.2,128.2,195.6,132.2l202-149.4
		l1.5,2.1L1051,913.3z"/>
	<path class="st1" d="M860.6,844.8c11.5-7.2,24.4-12.7,35-21.3c10.7-8.8,18.6-20.5,24.7-32.8c4.5-9,8.1-18.3,11.6-27.7
		c-86.9,1.4-92.3,5.3-92.3,22.8c0,10.3,0.9,39.9,2.4,73.6C847.5,854.1,853.7,849.2,860.6,844.8z"/>
	<path class="st3" d="M795.1,773.4c4.8-1.5,10.7,1.1,12.5,5.9c-3.8-4.5-7.6-9.1-9.5-14.7s-1.3-12.4,3-16.4c6.3-6,16.6-3.3,24.5,0.3
		c13.6,6.3,26.5,14.2,38.2,23.6c5.9,4.8,12.1,11.3,10.8,18.8c-1.3,7.6-9.6,11.8-17.1,13.7c-18.2,4.8-39.3,4.3-57-2.4
		C790.2,798.4,779.4,778.3,795.1,773.4z"/>
	<path class="st4" d="M872.7,746.2c1.7,2.8,5.5,4.4,9.1,4.2c3.7-0.2,7.1-2.1,8.9-4.8c2-2.8,2.3-6.4,0.7-9.3c-1.6-2.9-5.2-5-9-5.1
		C874.4,731.1,869.2,740.4,872.7,746.2z"/>
	<path class="st4" d="M901.7,743.2c1.7,2.8,5.5,4.4,9.1,4.2s7.1-2.1,8.9-4.8c2-2.8,2.3-6.4,0.7-9.3c-1.6-2.9-5.2-5-9-5.1
		C903.4,728.2,898.2,737.4,901.7,743.2z"/>
	<path class="st4" d="M930.8,741.5c1.7,2.8,5.5,4.4,9.1,4.2c3.7-0.2,7.1-2.1,8.9-4.8c2-2.8,2.3-6.4,0.7-9.3c-1.6-2.9-5.2-5-9-5.1
		C932.5,726.5,927.3,735.8,930.8,741.5z"/>
	<path class="st2" d="M858.1,986.8l-2.1-1.6c35.2-46.4,76.7-87.5,123.5-122.3l1.5,2.1C934.5,899.6,893.1,940.6,858.1,986.8z"/>
	<path class="st2" d="M1036.9,952.9c0.4-6.5,0.7-13,1.1-19.4c-20.2-0.1-40.3-0.3-60.5-0.4c-10.3-0.1-31.8-5.2-33.6,10.2
		c-1.8,15.4,22.3,9.5,31.8,9.5C996.1,952.8,1016.5,952.8,1036.9,952.9z"/>
</g>
<g id="Plane_2">
	<g id="Character">
		<g id="Hand">
			<path class="st1" d="M1022.7,413.9c14.3-8.7,30.4-43.9,28.3-62.4c-2.1-18.5-0.4-18.1,3.4-17.3c3.8,0.9,4.7,21.6,6.4,21.9
				c1.7,0.3,11.1,11.3,9.4,19.4c-1.7,8.1,2,56.6-45,67.5C978.1,453.9,1022.7,413.9,1022.7,413.9z"/>
			<path class="st0" d="M1056.8,366.1c-1.4-15.9,6.8-21.2,10-17.5c3.1,3.7-1.8,13.1-1.5,18.7S1057.3,372.2,1056.8,366.1z"/>
		</g>
		<g id="Body_3_">
			<path class="st0" d="M976.6,474.4c17.7-4.3,35.5-8.5,53.3-12.7c0.4-12.1,1.4-24.2,1.1-36.3c-0.4-17.8-4-36.4-15.2-50.3
				c-11.2-13.9-31.4-21.6-47.6-14.1c-14.8,6.9-22.1,23.6-26.5,39.3c-5.1,18.1-8,36.8-8.9,55.6c-0.3,7.8-1.8,20-0.1,30.1
				C946.9,480.6,962.3,477.9,976.6,474.4z"/>
			<path class="st1" d="M961.9,452.2c-11.1-10.1,37.9-57.8,62.4-62.7c-2.2-5.2-4.9-10.1-8.4-14.5c-11.2-13.9-31.4-21.6-47.6-14.1
				c-14.8,6.9-22.1,23.6-26.5,39.3c-5.1,18.1-8,36.8-8.9,55.6c-0.3,7.8-1.8,20-0.1,30.1c5.9-2.3,63.1-19.1,69.3-20.7
				C1002.8,449.2,974.4,463.6,961.9,452.2z"/>
			<path class="st5" d="M961.9,452.2c-0.3-0.3-0.5-0.6-0.7-0.9c-9.3,0.1-18.6-0.2-28-0.8c-0.1,1.8-0.2,3.5-0.3,5.3
				c-0.3,7.8-1.8,20-0.1,30.1c5.9-2.3,63.1-19.1,69.3-20.7C1002.8,449.2,974.4,463.6,961.9,452.2z"/>
			<path class="st6" d="M975.5,349.2c-24.4,2.3-43.5,21.2-45.4,48.4c-2,28.5,16.2,34.1,25.7,32.4c19.6-3.4,21.8-19.5,25.7-37.2
				c0,0,50.9-9.3,56.1-11.2c5.2-1.9-16.9-6.3-16.9-6.3S1013.5,345.5,975.5,349.2z"/>
			<path class="st7" d="M971.1,349.8c-22.3,4-39.2,22.2-41,47.8c-2,28.5,16.2,34.1,25.7,32.4c4.6-0.8,8.2-2.3,11.1-4.3
				C958.1,403.2,961,373.9,971.1,349.8z"/>
			<path class="st1" d="M956.9,417.2c4.1-0.1,9.7-3.2,11.1-7.1c4.8-13.8-12.9-21.3-20.1-13.9C940.8,403.5,946.6,417.5,956.9,417.2z"
				/>
			<path class="st5" d="M1013.5,413.6c1.7-0.1,4-1.3,4.5-2.9c1.9-5.6-5.3-8.7-8.2-5.7C1007,408,1009.3,413.7,1013.5,413.6z"/>
			<path class="st8" d="M1006,403.5l-2.5-0.8c1.1-3.3,3.8-6.1,7.2-7.1c3.3-1,7.1-0.3,9.9,1.9l-1.6,2c-2.1-1.7-5-2.2-7.5-1.4
				C1009,398.9,1006.8,401,1006,403.5z"/>
			<path class="st2" d="M1019.8,435.4c-1.6,0-3.3-0.4-4.7-1.1c-2.9-1.5-5.1-4.3-5.7-7.5l2.6-0.5c0.4,2.4,2.1,4.6,4.3,5.7
				c2.2,1.1,4.9,1.1,7.1,0l1.1,2.3C1023,435,1021.4,435.4,1019.8,435.4z"/>
			<path class="st9" d="M1004.1,375.5c-3.7-8.3-11-14.8-19.7-17.3c-8.7-2.6-18.4-1.1-26,3.8l-1.4-2.2c8.2-5.4,18.7-6.9,28.1-4.2
				c9.4,2.8,17.4,9.8,21.4,18.8L1004.1,375.5z"/>
			<path class="st1" d="M953.1,389.3c-6.1-2.4-13.2-2.1-19.1,0.6c-2.5,1.1-4.8,2.7-6.3,5c-1.5,2.2-2.2,5.2-1.3,7.7
				c1.5,4.2,6.4,5.9,10.8,6.7c4.9,0.9,9.9,1.4,14.9,1.4c5,0,14.2-1.1,14.5-7.8C966.8,396.9,957.7,391.1,953.1,389.3z"/>
		</g>
	</g>
	<g id="Plane_1_">
		<path class="st10" d="M905.9,563c40.1,56.9,60.7,77.5,65.3,72.8c4.7-4.7,173.1-177.5,173.1-177.5L905.9,563z"/>
		<path class="st9" d="M1204.6,422c-180.2,22.4-347.4,70.1-354.8,80.3c-7.4,10.3-34.5,118.5-30.7,119.5
			c3.7,0.9,369.6-173.6,385.5-183C1220.5,429.5,1204.6,422,1204.6,422z"/>
		<path class="st11" d="M954.7,508.3c16.6,1.6,54.4-18.6,69.6-24.6c23.5-9.1,55-11.1,52.1-41.5c-43.5,8.2-83.6,17-117.5,25.4
			C951.9,478.8,937.6,506.7,954.7,508.3z"/>
		<path class="st2" d="M879.4,571.9c-6.7,0-12.2-2.2-16.3-6.7c-9.1-9.7-10.6-21-4.6-34.7c7.3-16.7,25.4-28.9,43-28.9c0,0,0,0,0,0
			c6.6,0,12.6,3.2,15.5,8.2c4.1,7.2,1.2,15.8-1.8,23.3c-1.6,4-3.6,8.3-7.8,9.9c-3.6,1.3-8-0.2-10-3.5c-0.2-0.3-0.3-0.6-0.4-0.9
			c-3.5,5.7-8.3,10.6-14,14.1c-4.3,2.7-10.1,4.3-13.9,0.9c-3.5-3.2-2.9-8.7-0.9-12.8c5.4-10.6,19.4-15.9,30.5-11.6l0.2-0.7l1.7,0.3
			l0.4,0.6c0.5,0.8,0.1,1.7-0.5,3.3c-0.6,1.6-1.6,4.3-0.9,5.4c1.3,2.2,4.4,3.3,6.9,2.4c3.2-1.2,4.9-4.8,6.3-8.4
			c2.8-7,5.4-14.9,1.9-21.1c-2.4-4.2-7.6-6.9-13.2-6.9c0,0,0,0,0,0c-16.6,0-33.7,11.5-40.6,27.3c-5.5,12.6-4.2,23,4.1,31.9
			c4.3,4.5,10.2,6.4,17.6,5.7c17.9-1.9,38.8-18.7,43.7-26.9l2.2,1.3c-5.3,8.8-26.6,26.1-45.6,28.1
			C881.7,571.8,880.5,571.9,879.4,571.9z M890.5,530.3c-8.1,0-16.2,4.4-19.9,11.7c-1.6,3.2-2.2,7.5,0.3,9.7c2.7,2.5,7.4,1,10.8-1.1
			c7.2-4.5,12.8-11.2,16.1-19C895.4,530.7,893,530.3,890.5,530.3z"/>
	</g>
	<g id="Hand_1_1_">
		<path class="st0" d="M1080.6,438.2c-15.8-4.6-43.3,8.3-60.2,4.7c-9-1.9-19.9-5-28-7.4c-7.6,6.8-14.6,14.4-21.6,21.8
			c44.4,22.9,89.2,6.4,96.4,6.6c9,0.2,8.5-5.4,7.7-6.6c0,0,8.9-3.9,4.9-9.9C1079.7,447.4,1087.5,440.2,1080.6,438.2z"/>
		<path class="st8" d="M1023.3,444.3c-8.6,0-17.3-1.4-25.7-4.2l0.8-2.5c9.9,3.3,20.5,4.7,30.6,3.9l0.2,2.6
			C1027.3,444.3,1025.3,444.3,1023.3,444.3z"/>
		<path class="st5" d="M990.4,435.9c-8.2-3.3-17.7-1.4-23.9,5.1c-4.1,4.3-7.1,9.3-7.5,13.7c-0.9,8.4,13.8,7,13.8,7l23.6-23.3
			L990.4,435.9z"/>
		<path class="st8" d="M1072.7,457.9c-3.3-2-7.7-2.1-11.1-0.2l-1.2-2.3c4.2-2.3,9.5-2.1,13.6,0.3L1072.7,457.9z"/>
		<path class="st8" d="M1078.6,448.4c-4.4-2.3-9.9-2.3-14.4-0.1l-1.2-2.3c5.2-2.7,11.6-2.6,16.8,0.1L1078.6,448.4z"/>
	</g>
</g>
<path id="Cloud_2" class="st12" d="M886.5,360.2c-4.1-4.5-8.9-8.7-14.8-10.2c-5.9-1.5-13,0.4-16,5.7s0.4,13.5,6.5,13.8
	c-16.6-13.2-35.3-23.7-55.3-30.8c-11.4-4.1-26.3-6.1-33.6,3.5c-5.1,6.7-3.8,16.7,0.9,23.8s12,11.8,19.2,16.3
	c7.2,4.5,14.7,9,19.7,15.8c-4.4-3-9.2-6.1-14.5-5.7c-5.3,0.4-10.2,6.4-7.4,11c2.2,3.5,7.1,3.8,11.2,3.6c28-1.1,57.1-0.1,84.9-3.4
	C915.5,400.3,898.8,373.7,886.5,360.2z"/>
<g id="Plane_1">
	<g id="Character_1_">
		<g id="Body">
			<path class="st13" d="M524.6,652.1c-2.9-10.2-7.5-20.4-6.1-30.8c2.2-16.6,19.6-28.7,36.3-28.3c68.4,1.7,89.3,44.9,89.3,44.9
				s-21.5,6.4-33.9,11.9c9.2,14.3,18.5,41.1,11,56.3s-23.4,26.1-40.3,27.5c-14.3,1.2-45.7-4.7-53.3-19.2c-3.9-7.5,0.2-17.5,0.8-25.3
				C529.3,676.8,528.1,664.1,524.6,652.1z"/>
			<path class="st14" d="M610.2,649.9c0.3-0.1,0.7-0.3,1-0.4c-2.7-0.5-5.4-1.1-8.1-1.8c-15.1,11.8-35.5,17.6-51.5,4.7
				c-12.4-10-15.7-28.6-9.8-42.9c-2.7-3.4-5.2-7.1-7.4-10.9c-8.4,5-14.8,13.1-16,22.7c-1.4,10.5,3.2,20.7,6.1,30.8
				c3.5,12,4.7,24.6,3.8,37c-0.6,7.8-4.7,17.9-0.8,25.3c7.7,14.5,39,20.4,53.3,19.2c16.9-1.4,32.8-12.3,40.3-27.5
				C628.8,691,619.4,664.2,610.2,649.9z"/>
			<path class="st6" d="M615.7,683c-6.6,1-13.2,2.5-19.9,2.8c-5.6,0.3-11.4-2.5-12.3-8.7c-1.2-7.9-8.4-14-16.6-13
				c-10.8,1.3-10.9,11.7-10.6,20.3c0.2,4.3-1.2,10-6.1,11.5c-7,2.2-13.9,3.9-21,5.6c-1,0.2-2,0.3-2.9,0.3c-0.6,4.5-0.7,8.9,1.3,12.7
				c7.7,14.5,39,20.4,53.3,19.2c16.9-1.4,32.8-12.3,40.3-27.5c3.3-6.6,3.3-15.4,1.7-24.4C620.5,682.2,618.1,682.6,615.7,683z"/>
			<path class="st2" d="M555,632.5c3.2,5,9.7,7.7,15.5,6.4s10.5-6.6,11.1-12.5c0.6-5.9-3-12.1-8.4-14.4
				C560.6,606.4,547.4,620.5,555,632.5z"/>
			<path class="st6" d="M573.5,637.7c4.3-2.2,7.6-6.5,8.1-11.4c0.6-5.9-3-12.1-8.4-14.4c-2.3-1-4.5-1.3-6.7-1.2
				C568.8,619.7,571.1,628.8,573.5,637.7z"/>
			<path class="st5" d="M563.7,614.9c3.5-0.7,7.1-1.4,10.6-2.1c2.5-0.5,5-1,7.2-2.3c2.2-1.3,4.1-3.4,4.2-6c0.3-3.6-2.8-6.7-6.3-7.7
				c-5.1-1.4-10.9,0.2-15.9,1.2c-3.4,0.6-7.5,1.3-10.1,3.9c-2.4,2.4-2.5,5.8-1.1,8.9C554.7,615.6,559,615.8,563.7,614.9z"/>
			<path class="st13" d="M583.9,697c-2.1-5.8-4-11.6-5.5-17.6c-1.2-4.6-5.2-8.1-10.3-7.3c-4.4,0.8-9.4,3-6.7,12.5
				c2.1,7.4,3.7,12.6,6.3,19.8c1.6,4.5,7.7,6.3,11.8,4.4C584.2,706.7,585.5,701.6,583.9,697z"/>
			<path class="st14" d="M606.6,655.9c-3.5-3.3-5.4-8-5.3-12.8c0.1-4.7,2.4-9.4,6-12.5l1.7,2c-3.1,2.6-5,6.6-5.1,10.6
				c-0.1,4,1.6,8.1,4.5,10.8L606.6,655.9z"/>
		</g>
		<g id="Hand_1_">
			<path class="st14" d="M653.5,641.8c2.8-9.6,6.2-16.4,13.7-19.3c7.5-2.9,7.8,2.4,3.9,5.6s-7.4,7.4-7.4,7.4L653.5,641.8z"/>
			<path class="st14" d="M638.3,696.7c24.6-47.6,3-55,27.6-64.8c18.9-7.5,11.9,7.3,11.9,7.3s9.6,3.9,2.4,11.2c0,0,5.5,6.1-2.9,11.4
				c-8.4,5.2-2.4,13-13.6,31.6C652.3,711.9,638.3,696.7,638.3,696.7z"/>
			<path class="st6" d="M684.4,614.4c19.4,0.3,43.2-7.3,43.6-5.1c0.5,3.1,14.8,45.2-13.4,49.3c-28.2,4-28.4-19.7-29.3-24.6
				S682.3,614.3,684.4,614.4z"/>
			<path class="st7" d="M683.6,616.1c-0.5,4,0.9,14,1.6,17.9c0.9,4.9,1.2,28.6,29.3,24.6c6.3-0.9,10.4-3.7,13.1-7.5
				C709.9,646.5,693.2,632.3,683.6,616.1z"/>
			<path class="st6" d="M686.6,656c-2.8,0-5.6-0.3-8.4-1c-6.7-1.8-14.2-7.2-15.6-15.3c-1.3-7.2,3-15.2,9.9-18.7
				c6.4-3.2,14.8-2.6,21.3,1.5l-1.4,2.2c-5.8-3.6-13.2-4.1-18.8-1.3c-5.9,3-9.6,9.8-8.5,15.9c1.2,7,7.8,11.7,13.7,13.3
				c7,1.9,14.5,0.6,20.8-0.8l0.6,2.5C696.3,655.1,691.5,656,686.6,656z"/>
			<path class="st14" d="M680.1,650.4l-13.2-16.7c-7.7,5.1-8.4,12.1-5.8,14.8c1.7,1.8,3.7,0.8,5.5-0.5c-1.9,1.7-3.3,4,0,6.1
				c4.8,3.1,14.9,4.5,15.1,2.4C681.9,654.4,680.1,650.4,680.1,650.4z"/>
			<path class="st15" d="M662.9,650.9c-0.6,0-1.2-0.1-1.8-0.3c-2.2-0.7-3.9-2.8-4-5.1c-0.2-2.3,2.4-6.6,10.1-11.7l1.4,2.2
				c-7.5,5-9,8.5-8.9,9.4c0.1,1.2,1,2.4,2.2,2.8c1.6,0.5,3.5-0.3,4.7-1c3-1.5,5.8-3.6,8.1-6l1.9,1.8c-2.6,2.7-5.5,4.9-8.8,6.6
				C666.5,650.2,664.7,650.9,662.9,650.9z"/>
			<path class="st15" d="M666.1,658.5c-0.7,0-1.3-0.1-1.9-0.3c-1.4-0.4-2.6-1.4-3.3-2.7c-0.6-1.1-0.7-2.3-0.4-3.3l2.5,0.8
				c-0.2,0.5,0,1,0.2,1.3c0.4,0.7,1,1.2,1.7,1.4c1.2,0.4,2.8,0.1,4.7-0.7c2.7-1.2,5-3.1,6.9-5.3l2,1.6c-2.1,2.6-4.8,4.7-7.8,6.1
				C668.9,658.1,667.4,658.5,666.1,658.5z"/>
			<path class="st15" d="M673,664.9c-1.5-0.1-3.1-0.2-4.6-0.9c-1.6-0.8-3.1-2.5-2.9-4.7l2.6,0.3c-0.1,0.8,0.7,1.7,1.4,2
				c1,0.5,2.4,0.6,3.6,0.7L673,664.9z"/>
			<path class="st6" d="M727.9,609.3c-1-4.2-16.3-1.6-26.2,0.2s-16.6,3.6-17.4,4.8s1.7,6.9,18.5,3.5
				C719.7,614.4,728.8,613.2,727.9,609.3z"/>
			<path class="st16" d="M724.8,614.2c0.7-6.3-12.9-3.9-21.7-2.2c-8.9,1.7-15,3.6-16.1,5.3c-1.1,1.8-1.1,10.1,14.1,6.8
				C716.3,620.8,724.2,620,724.8,614.2z"/>
			<path class="st8" d="M718.6,620c3.8-1.3,5.9-3,6.2-5.8c0.7-6.3-12.9-3.9-21.7-2.2c-0.4,0.1-0.7,0.1-1,0.2
				C707.9,614,713.5,616.5,718.6,620z"/>
		</g>
	</g>
	<g id="Wrist">
		<path class="st3" d="M517.1,816.4c103-47.4,136.6-85,157.2-59.7c20.6,25.3-59.7,69.8-67.1,86.3c-7.5,16.5-13.9,79.9-101.5,86.9
			c-87.6,7-49.1-93.6-49.1-93.6L517.1,816.4z"/>
		<path class="st10" d="M803,659.3c-88.5,66-241.5,203.8-250,209.6s-39-51.3-61-83.9C470.1,752.3,803,659.3,803,659.3z"/>
		<path class="st17" d="M700.6,705.6c-4.6-6.3-32.5,3.8-43.7,7.8C593.7,736,532,755.5,478.3,795.7c-5.4,4-10.6,8.1-15.7,12.4
			c-8.9,6.6-141.6,86.2-171.6,126.2c-11.3,15-8.6,64.1,49.6,87.2c144.6,57.2,172.8-58.6,210.9-85.3c76.2,28.8,91.1-47.8,91.1-47.8
			s22.2-17.9,22.8-47c0.6-31.3-15.3-58.8-81.1-50c20.2-15.3,75.8-34.1,99.1-44.1C691.9,743.5,715.7,726.3,700.6,705.6z"/>
		<path class="st18" d="M571,909.9c-1.8,2.8-5.1,8.8-7.2,11.4c-7.2,8.9-15.2,16.9-12.2,14.8c43.9,16.6,67.5-1.8,79.5-20.4
			C610.1,920.1,587.6,919,571,909.9z"/>
		<path class="st18" d="M319.1,939.8c34.9-6.6,68.7-18.2,99.9-35.2c54.8-29.8,90.9-79.3,106.5-138.5c-16.3,8.6-32,18.2-47.2,29.5
			c-5.4,4-10.6,8.1-15.7,12.4c-8.9,6.6-141.6,86.2-171.6,126.2c-1.8,2.4-3.3,5.8-4.2,9.7C297.6,943.1,308.4,941.8,319.1,939.8z"/>
		<path class="st9" d="M426.8,735.6c-34.6,46.3-61,99.7-67.7,110.9c-8.8,14.6,18.9-0.4,83.7-25.8s362-156.5,368.1-162.2
			c6.1-5.7-26.3-7.3-89.7,10C657.8,685.8,436.1,723.3,426.8,735.6z"/>
		<path class="st19" d="M537.2,747.2c-46.1,9.7-95.3,42.3-143.2,37.6c-17.8,29.4-30.5,54.5-34.9,61.7c-8.8,14.6,18.9-0.4,83.7-25.8
			c30.1-11.8,110.4-46.4,188.3-80.7C600.1,734.7,563.3,741.7,537.2,747.2z"/>
		<path class="st8" d="M555.3,933.6l-1.6-2.1c8.4-6.3,14.9-15.3,18.4-25.1l2.4,0.9C570.9,917.6,564,926.9,555.3,933.6z"/>
		<path class="st8" d="M601.2,915c-9,0-19-2-28.3-5.9l1-2.4c11.1,4.6,23.2,6.5,33.2,5.3l0.3,2.6C605.4,914.8,603.3,915,601.2,915z"
			/>
		<path class="st8" d="M644.2,885.2l-2.5-0.7c2.7-9.4-0.8-22.9-7.4-28.4c-7.3-6.1-50.7-8.2-61.3-7.2l-0.3-2.6
			c9.8-0.9,54.8,0.7,63.2,7.8C643.3,860.2,647.2,874.7,644.2,885.2z"/>
		
			<rect x="547.1" y="842.9" transform="matrix(0.4531 -0.8915 0.8915 0.4531 -456.4293 952.8807)" class="st8" width="2.6" height="11.1"/>
		
			<rect x="552" y="793.1" transform="matrix(0.2965 -0.955 0.955 0.2965 -373.6759 1090.3823)" class="st8" width="2.6" height="11.4"/>
		<path class="st8" d="M685.1,735.7c-5.2,0-10.3-2.2-13.7-6.1l2-1.7c4.2,4.8,11.9,6.6,17.8,4c5.9-2.6,9.8-9.4,9.1-15.8l2.6-0.3
			c0.8,7.6-3.7,15.3-10.7,18.4C689.9,735.2,687.5,735.7,685.1,735.7z"/>
	</g>
</g>
<g id="Plane_3">
	<g id="Hand_2">
		<path class="st4" d="M1306,369.9c81.8,10.1,129.8-28.8,151.8-37.5c26.9-10.7,46-20.8,45.5-13.5c-0.5,7.9-16.2,14.9-16.2,14.9
			s7.3,16.8-10.5,23.2c0,0-53.4,49-102.4,56.7c-49,7.7-74.6-7-74.8-10.6C1299.2,399.6,1306,369.9,1306,369.9z"/>
		<path class="st0" d="M1455.3,366.3l-0.4-2.6c3.4-0.6,5.4-4,7.8-8.3c2.4-4.2,5.2-9,10.1-13c5.7-4.5,7.4-9.4,6.3-11.1
			c-0.8-1.3-4.1-1.6-10.7,1.9c-1.9,1-3.4,2.2-4.8,3.3c-2.2,1.7-4.5,3.5-8.1,4.4l-0.6-2.5c3-0.8,4.9-2.2,7.1-4
			c1.5-1.2,3.1-2.4,5.2-3.5c9.5-5,12.9-2.8,14.1-1c2.2,3.5-0.7,9.7-6.9,14.5c-4.6,3.6-7.2,8.2-9.5,12.2
			C1462.3,361.4,1460,365.5,1455.3,366.3z"/>
		<path class="st0" d="M1482.2,354.1l-2.1-1.5c2.4-3.3,2.3-7.7,1.2-10.7c-0.6-1.7-1.6-2.8-2.5-3l0.5-2.5c1.8,0.4,3.4,2.1,4.4,4.6
			C1485.1,344.6,1485.2,350,1482.2,354.1z"/>
		<path class="st0" d="M1474.9,359l-1.8-1.9c1.7-1.6,0.7-8.6-1.1-10.8l2-1.7C1476.2,347.2,1478.1,355.9,1474.9,359z"/>
	</g>
	<g id="Back_wing">
		<path class="st11" d="M1005.4,544.3c67.6,29.2,139,43.7,139,43.7l-66-79.7l-53.3,16.1L1005.4,544.3z"/>
		<path class="st19" d="M1042.6,502.9c-23.8,16.2-83.4,68.9-82.6,72.6c2.1,9.7,72-47,105.2-59.5c31.3-11.8,552.5-176.2,552.5-176.2
			C1482.7,354.1,1066.4,486.7,1042.6,502.9z"/>
	</g>
	<g id="Body_1_">
		<g id="Body_2_">
			<path class="st20" d="M1313.6,368.9c6.3,7.8,15.5,13.6,25.3,15.7c6.6-10.7,18.3-30.9,24.8-41.7c-13.3-2.8-38.2,4-56.2,1.7
				C1306.3,353,1307.6,361.5,1313.6,368.9z"/>
			<path class="st5" d="M1314,342.7c-26.4-3.6-52.2-6.2-52.2-6.2c-84.2,53.3-133.5,166.4-133.5,166.4l186.8-34.9
				c0,0,29.4-75.6,46.2-108.8C1337.5,358.1,1322.5,358,1314,342.7z"/>
		</g>
		<g id="Head">
			<path class="st4" d="M1329.5,347c52.1,0.4,91.6-8.7,103-16.1c16.1-10.3,14.4-31.3,4-45c-5.3-6.9-17-14-46.4-7.3
				c5.6-24.3-10.3-50.6-33.3-60.3c-23-9.8-50.5-4.6-71.1,9.6C1234.7,263.2,1315.8,346.9,1329.5,347z"/>
			<path class="st10" d="M1317.6,323.8c-10.2-20.2-9.4-50.4,1.5-70.1c5.8-10.5,15.1-16.8,26.3-20.6c7.9-2.7,16.7-3.7,24.2-7.2
				c-3.9-3.1-8.1-5.6-12.6-7.6c-22.9-9.8-50.5-4.6-71.1,9.6c-51.1,35.2-74.7,108.6,0.3,116.6c18.2,1.9,35.6,2.6,51.6,2.5
				C1329.3,340.9,1322.3,333.1,1317.6,323.8z"/>
			<path class="st8" d="M1287.8,296.3c19.6-12.4,23.8-29.2,25.2-50.9c0.4-6,4.6-10.3,10.7-10.7c15.9-0.9,30.2-3.9,43.6-10.4
				c-3.3-2.3-6.7-4.4-10.4-5.9c-22.9-9.8-50.5-4.6-71.1,9.6c-25.2,17.4-43.7,44-47,67.5C1254.6,303.5,1271,306.9,1287.8,296.3z"/>
			<path class="st2" d="M1342.1,280.7c4,4.3,10.6,5.8,16.2,4.1c7.4-2.2,12.8-10.1,12.1-17.8c-0.7-7.7-7.4-14.6-15.1-15.3
				c-6.8-0.6-14.9,4.1-17.2,10.7C1336.3,267.7,1338.5,276.9,1342.1,280.7z"/>
			<path class="st5" d="M1357,252.1c0.6,10.9,0.8,21.9,1.1,32.8c0.1,0,0.2,0,0.2-0.1c7.4-2.2,12.8-10.1,12.1-17.8
				C1369.8,259.9,1364,253.6,1357,252.1z"/>
			<path class="st8" d="M1372.5,306.6c-3.1-0.6-6.5-1.2-9.5,0c-4.8,1.9-7,8-5.5,12.9c1.5,4.9,5.9,8.5,10.7,10.3
				c4.8,1.8,10.1,2,15.2,2.1c6,0.1,12.2-0.1,17.6-2.6c7.2-3.3,13.9-12.9,4.3-16.6C1395.6,308.9,1382.8,308.5,1372.5,306.6z"/>
			<path class="st17" d="M1392.7,322.1c-7.6-1.7-25.7-3.9-31.5,3.2c2,2,4.5,3.5,7.1,4.5c4.8,1.8,10.1,2,15.2,2.1
				c6,0.1,12.2-0.1,17.6-2.6c1.8-0.8,3.6-2,5.1-3.5C1401.3,324.2,1396.5,323,1392.7,322.1z"/>
			<path class="st8" d="M1337.9,257.5c1.6,0.6,3.4,0.5,5.1,0.3c7.5-0.6,15-1.1,22.4-1.7c1.8-0.1,3.8-0.3,5.2-1.6
				c2.3-2.1,1.7-5.8,0.9-8.8c-0.8-3.2-1.9-6.7-4.8-8.2c-2.1-1.2-4.7-0.9-7.1-0.7c-4.9,0.5-9.9,1-14.8,1.6c-3.1,0.3-7,0.8-9.4,3
				C1331.1,245.3,1332.5,255.4,1337.9,257.5z"/>
			<path class="st8" d="M1384.8,213.9c2.9-3,5.5-7,4.8-11.1c-0.9-5.9-7.9-9.1-13.8-8c-5.8,1.1-10.6,5.1-15.1,8.9
				c1.8-3.7-1.3-8.3-5.2-9.4c-3.9-1.1-8.1,0.4-11.6,2.4c-7.4,4.3-13.2,11.2-16.2,19.2c-1.1,3-1.7,6.8,0.5,9.1
				c1.3,1.4,3.4,1.9,5.3,2.2C1351.5,230.3,1371.5,227.5,1384.8,213.9z"/>
		</g>
	</g>
	<g id="Plane">
		<path class="st20" d="M1121.6,599.4c76.6,33.7,113.7,87.5,124.2,93.1s114.7-120.9,168-168.1c41.2-36.5,182.5-168.3,182.5-168.3
			L1121.6,599.4z"/>
		<path class="st4" d="M1381.3,530.5c-9.4,14.8-16.2,31-21.3,47.7c19.8-21.1,38.8-40.6,53.8-53.9c11.1-9.9,29.6-26.7,50.6-46
			C1432.5,476.3,1396.4,506.9,1381.3,530.5z"/>
		<path class="st9" d="M1617.7,339.9c-12.3-7.2-498.1,135.5-552.5,176.2c-5.6,4.2-10.9,44.2-18.7,87.3c-4.4,24.6-9.7,50.1-12,67.5
			c18.1-6.1,36.9-10.1,55.8-13.3c31.8-24.5,73.4-58.1,117.5-88.2C1288.7,514.1,1630,347.1,1617.7,339.9z"/>
		<path class="st19" d="M1211.4,456.9c-0.6,2.8-1.2,5.7-1.5,8.6c-1.6,11.7-0.4,24.5,9.2,32.6c12.4,10.4,26.6,13.5,44.9,7.1
			c32.5-11.3,25.5-28.1,126.3-63c24.1-8.4,1.4-21.5,9-44.9C1336.4,416.1,1269.2,437.3,1211.4,456.9z"/>
		<path class="st19" d="M1090.3,657.7c-15.6-13.2-66.9-15.7-66.1-10.7c0.8,4.9,10.3,24,10.3,24L1090.3,657.7z"/>
	</g>
	<g id="Hand_1">
		<path class="st4" d="M1410.8,405c-6.6-4.3-44.3,2.9-54,4.3c-9.7,1.4-22.1-3.2-38.8-11.1c-15,0-27.8,4.4-37.1,21.5
			c53.7,32,88,22.6,102.7,21.4c19-1.6,22.5-3.9,22.1-10.9c0,0,12-3.7,4.3-13.7C1410,416.5,1417.4,409.3,1410.8,405z"/>
		<path class="st0" d="M1403.6,430.6c-6.7-2.5-14.5-2.5-21.3,0l-0.9-2.4c7.3-2.7,15.7-2.7,23.1,0L1403.6,430.6z"/>
		<path class="st0" d="M1410.3,417.7c-7.6-3-13.7-3.4-20.3-1.1l-0.8-2.5c7.2-2.4,13.8-2.1,22.1,1.2L1410.3,417.7z"/>
		<path class="st4" d="M1391.6,397.5c1.3-1,2.8-2,4.4-2.4c1.6-0.4,3.6,0,4.6,1.3c0.9,1.2,1,2.8,0.5,4.2s-1.5,2.6-2.5,3.6
			c-2.8,2.7-18.6,11.3-22.5,8.1C1370.9,408,1388.7,399.7,1391.6,397.5z"/>
		<path class="st0" d="M1390.8,406l-1.1-2.4c2.2-1,7.6-1.9,9.9-1.8l-0.1,2.6C1397.6,404.4,1392.6,405.2,1390.8,406z"/>
		<path class="st9" d="M1270.5,434.2l-0.4-0.5c-8.6-9.5-16.1-19.9-22.4-31l2.3-1.3c6.1,10.8,13.4,20.9,21.6,30.1
			c3.1-0.4,8.9-2.8,12.9-5.3l1.4,2.2c-4.2,2.6-11.1,5.5-14.7,5.7L1270.5,434.2z"/>
		<path class="st9" d="M1321.9,396.5c-10.6-5.8-20.3-13.2-28.7-21.9l1.9-1.8c8.3,8.5,17.7,15.7,28.1,21.4L1321.9,396.5z"/>
	</g>
</g>
<g id="Cloud_1">
	<path class="st3" d="M1713.7,831.2c-15.2-15.6-58.5-26.4-78.3-3.9c-9.9,11.2-7,30.9-1.4,44.6c-49.9-58.9-83.9-124.8-181.7-204.5
		c-100.2-81.8-243.6-33.2-279,22.4c-11.9,18.7-11.9,44.7,16.5,73.4c25.3,25.5,41.6,57.9,65.8,82.8
		c-41.3-24.9-247.1-15.2-150.3,107.7c16,20.4,38.6,35.6,61.6,44.4c21,8.1,43.5,8,65.6,7.8c128-0.8,256-1.7,384.1-2.5
		c31.8-0.2,63.6-0.4,95.4-0.6c22.5-0.1,48.6,3.6,69.3-9.2C1814.7,973,1796.1,915.8,1713.7,831.2z"/>
	<path class="st12" d="M1300.2,784.9c-26.7,5.4-51.2,30.9-53.6,62.6c-2,26.7,11.5,52.5,29.9,68.4s40.9,23.4,63.3,28.8
		c27.4,6.7,55.2,10.7,83.1,12.1c59.6,2.9,71.8-65.3,21.3-95.9C1399.2,833.8,1355.3,773.7,1300.2,784.9z"/>
	<path class="st12" d="M1376.2,786.6c8,5.4,18.6,10.7,25.8,3.9c4.5-4.2,5.7-12.1,4.1-18.6c-1.6-6.5-5.5-11.9-9.7-16.6
		c-12.3-13.5-57.8-41.9-72.3-18.5C1312.4,755.8,1365.7,779.5,1376.2,786.6z"/>
</g>
<g id="Steam">
	<path class="st12" d="M661.8,558.6c-14.1-20.9-29.5-22.2-41.6-16.5c-2.8,1.3-5.8,4-4.9,6.9c-21.2-23.7-56-16.9-70.2-4
		c-6,5.4-9.1,12-10.3,17.4c-0.9,4.2,0.8,8.6,3.6,11.8s6.7,5.2,10.7,6.7c11.2,4.2,23.5,4.2,35.4,3.2c20.9-1.8,46.7-4.6,66.3-12.2
		c23.1,20.4,34,33.2,37.3,33.1C690.2,605,683.9,591.4,661.8,558.6z"/>
	<path class="st12" d="M412.3,450.1c-14.2,1.2-28.4,4.1-41,10.9c-12.5,6.7-23.3,17.6-27.7,31.1c-7.3,22.5,4.4,47.9,23,62.4
		s42.6,20.2,66.1,23.1c29.1,3.6,58.7,3.4,87.7-0.3c16.1-2.1,71.7-5.5,71-27.5c-0.6-18.4-28.1-42.4-41-53.5
		c-18-15.5-38.9-27.7-61.3-35.8C464.7,451.7,438.3,447.9,412.3,450.1z"/>
	<path class="st3" d="M428.7,494.5c-9.5,0.1-19.2,1.1-27.5,5.6c-8.3,4.5-14.9,13.2-14.7,22.7c0.2,8.8,6.3,16.6,13.7,21.3
		s16.1,6.8,24.7,8.9c22.5,5.5,45.1,10.9,67.6,16.4c13.1,3.2,29.5,5.3,37.8-5.3c5-6.4,5-15.7,2-23.3
		C518.5,505.7,461.8,494.3,428.7,494.5z"/>
</g>
<g id="Lines">
	<path class="st17" d="M311.1,761c-11.2,0-21.6-1.8-31-5.4c-7.2-2.8-13.7-6.7-19.3-11.4c-39.5,12.2-86.2,2.1-115.2-27.7
		c-36.5-37.6-40.7-102.4-9.4-144.5l2.1,1.6c-30.6,41.1-26.5,104.4,9.1,141.1c28,28.8,72.8,38.7,111.1,27.5
		c-9.1-8.5-15.5-19.2-17.6-30.5c-4-21.2,8.2-43.7,27.1-50.1c9.9-3.4,21.9-1.5,31.5,4.8c8.7,5.8,14,14.5,14.6,23.7
		c1.3,19.9-16.6,34.7-24.3,40.1c-8,5.6-16.8,10-26,13.1c5.1,4.1,11,7.5,17.3,10c16.7,6.4,36.9,7,58.5,1.6
		c19.4-4.8,37.8-13.7,55.6-22.2l1.1,2.3c-17.9,8.6-36.4,17.5-56.1,22.4C330.1,759.7,320.3,761,311.1,761z M278.3,662.4
		c-3.3,0-6.5,0.5-9.5,1.5c-17.7,6-29.1,27.2-25.3,47.2c2.1,11.2,8.6,21.9,17.9,30.1c9.5-3.1,18.6-7.5,26.8-13.3
		c7.4-5.2,24.4-19.2,23.2-37.8c-0.5-8.4-5.5-16.3-13.5-21.7C292,664.5,285,662.4,278.3,662.4z"/>
	<path class="st17" d="M780,528.4c-27,0-54.1-12.6-70.1-34.7l2.1-1.5c22,30.6,66.1,42.3,100.4,26.7l1.1,2.4
		C803,526.1,791.5,528.4,780,528.4z"/>
</g>
</svg>
